<svg xmlns="http://www.w3.org/2000/svg" width="500" height="500" viewBox="0 0 500 500" version="1.1"><path d="M 232.500 1.138 C 214.707 1.847, 204.914 3.384, 185.027 8.589 C 142.901 19.614, 105.205 41.604, 72.999 73.940 C 36.938 110.147, 15.747 149.731, 4.709 201.500 L 1.511 216.500 1.505 249 C 1.501 276.304, 1.795 283.099, 3.342 291.500 C 12.821 342.947, 34.863 386.813, 69.165 422.494 C 108.017 462.908, 158.405 489.138, 212.438 497.075 C 230.769 499.768, 268.701 500.002, 285.500 497.526 C 311.361 493.713, 336.213 485.991, 359.525 474.524 C 401.610 453.824, 437.128 422.075, 461.703 383.190 C 475.828 360.840, 488.222 330.324, 493.978 303.730 C 498.722 281.809, 499.257 275.089, 498.735 244 C 498.281 216.931, 498.102 214.772, 495.174 201 C 484.060 148.725, 460.172 105.298, 422.869 69.553 C 403.392 50.889, 382.921 36.689, 358.500 24.903 C 317.813 5.266, 284.862 -0.949, 232.500 1.138 M 176 80.769 C 171.624 82.913, 163.945 90.006, 138.417 115.482 C 120.771 133.092, 104.906 149.482, 103.163 151.906 C 101.419 154.329, 99.089 159.345, 97.984 163.052 C 96.046 169.562, 95.978 172.538, 96.015 249.647 C 96.056 336.604, 96.024 336.067, 101.745 346 C 103.196 348.520, 118.675 364.824, 136.918 383.050 C 164.804 410.907, 170.424 416.060, 175.910 418.800 L 182.319 422 273.053 422 C 354.867 422, 363.846 421.845, 364.393 420.418 C 365.478 417.591, 365.079 350.016, 363.965 347.934 C 362.955 346.048, 361.032 346, 285.778 346 L 208.626 346 190.895 328.368 C 181.143 318.671, 172.950 309.916, 172.688 308.915 C 172.426 307.913, 172.797 306.293, 173.512 305.315 C 174.754 303.617, 175.050 303.626, 180.156 305.519 C 185.281 307.419, 188.168 307.500, 250.500 307.500 L 315.500 307.500 322.177 304.337 C 330.338 300.470, 349.287 282.942, 379.105 251.676 C 404.271 225.290, 403.164 227.883, 403.762 193.905 C 404.145 172.104, 404.016 169.771, 402.067 163.225 C 400.708 158.662, 398.393 154.061, 395.560 150.292 C 393.142 147.075, 377.483 130.919, 360.762 114.390 C 335.276 89.195, 329.336 83.825, 324.021 81.168 L 317.681 78 249.590 78.037 L 181.500 78.074 176 80.769 M 197.941 164.143 C 181.422 179.320, 173.008 188.866, 173.003 192.435 C 173.001 194.900, 175.760 198.147, 190.213 212.685 L 207.425 230 249.894 230 L 292.363 230 308.760 213.750 C 325.528 197.134, 328.212 193.778, 327.122 190.801 C 326.157 188.165, 309.837 170.874, 299.932 161.994 L 291.017 154 250 154 L 208.982 154 197.941 164.143" stroke="none" fill="#131b22" fill-rule="evenodd"/><path d="M 176 80.769 C 171.624 82.913, 163.945 90.006, 138.417 115.482 C 120.771 133.092, 104.906 149.482, 103.163 151.906 C 101.419 154.329, 99.089 159.345, 97.984 163.052 C 96.046 169.562, 95.978 172.538, 96.015 249.647 C 96.056 336.604, 96.024 336.067, 101.745 346 C 103.196 348.520, 118.675 364.824, 136.918 383.050 C 164.804 410.907, 170.424 416.060, 175.910 418.800 L 182.319 422 273.053 422 C 354.867 422, 363.846 421.845, 364.393 420.418 C 365.478 417.591, 365.079 350.016, 363.965 347.934 C 362.955 346.048, 361.032 346, 285.778 346 L 208.626 346 190.895 328.368 C 181.143 318.671, 172.950 309.916, 172.688 308.915 C 172.426 307.913, 172.797 306.293, 173.512 305.315 C 174.754 303.617, 175.050 303.626, 180.156 305.519 C 185.281 307.419, 188.168 307.500, 250.500 307.500 L 315.500 307.500 322.177 304.337 C 330.338 300.470, 349.287 282.942, 379.105 251.676 C 404.271 225.290, 403.164 227.883, 403.762 193.905 C 404.145 172.104, 404.016 169.771, 402.067 163.225 C 400.708 158.662, 398.393 154.061, 395.560 150.292 C 393.142 147.075, 377.483 130.919, 360.762 114.390 C 335.276 89.195, 329.336 83.825, 324.021 81.168 L 317.681 78 249.590 78.037 L 181.500 78.074 176 80.769 M 197.941 164.143 C 181.422 179.320, 173.008 188.866, 173.003 192.435 C 173.001 194.900, 175.760 198.147, 190.213 212.685 L 207.425 230 249.894 230 L 292.363 230 308.760 213.750 C 325.528 197.134, 328.212 193.778, 327.122 190.801 C 326.157 188.165, 309.837 170.874, 299.932 161.994 L 291.017 154 250 154 L 208.982 154 197.941 164.143" stroke="none" fill="#fbe415" fill-rule="evenodd"/></svg>